# xmcd
#
# Track frame offsets: 
#        150
#        35200
#        58600
#        89500
#        112300
#        135800
#        160995
#        220745
#        242987
#
# Disc length: 3582 seconds
#
# Revision: 5
# Processed by: cddbd v1.5.2PL0 Copyright (c) Steve Scherf et al.
# Submitted via: ExactAudioCopy v0.99pb5
#
DISCID=820dfc09
DTITLE=Eric Clapton - Same Old Blues
DYEAR=1986
DGENRE=Rock
TTITLE0=Crosscut Saw
TTITLE1=Double Trouble
TTITLE2=All Your Love
TTITLE3=I'd Go Home
TTITLE4=Crossroads
TTITLE5=White Room
TTITLE6=Same Old Blues
TTITLE7=Holy Mother
TTITLE8=Cocaine
EXTD=Live in Montreux July, 10, 1986. YEAR: 1986
EXTT0=Live in Montreux with Otis Rush
EXTT1=Live in Montreux with Otis Rush
EXTT2=Live in Montreux with Otis Rush
EXTT3=Live in Montreux with Otis Rush
EXTT4=Live in Montreux with Otis Rush
EXTT5=Live in Montreux with Otis Rush
EXTT6=Live in Montreux with Otis Rush
EXTT7=Live in Montreux with Otis Rush
EXTT8=Live in Montreux with Otis Rush
PLAYORDER=
